<svg xmlns="http://www.w3.org/2000/svg" xmlns:xlink="http://www.w3.org/1999/xlink" xmlns:lucid="lucid" width="1080" height="911"><g transform="translate(-60 -60)" lucid:page-tab-id="GUfsTAgecQGM"><path d="M0 0h1760v1360H0z" fill="#fff"/><path d="M182.5 240H340" stroke="#5e5e5e" stroke-width="2" fill="none"/><path d="M182.53 241h-1.03v-2h1.03" fill="#5e5e5e"/><path d="M355.26 240L341 244.64v-9.28z" stroke="#5e5e5e" stroke-width="2" fill="#5e5e5e"/><use xlink:href="#a" transform="matrix(1,0,0,1,255.20987654320987,214.66666666666674) translate(0 14.222222222222223)"/><path d="M402.5 278.67H560" stroke="#5e5e5e" stroke-width="2" fill="none"/><path d="M402.53 279.67h-1.03v-2h1.03" fill="#5e5e5e"/><path d="M575.26 278.67L561 283.3v-9.27z" stroke="#5e5e5e" stroke-width="2" fill="#5e5e5e"/><use xlink:href="#b" transform="matrix(1,0,0,1,452.5679012345679,253.3333333333335) translate(0 14.222222222222223)"/><path d="M622.5 318.67H780" stroke="#5e5e5e" stroke-width="2" fill="none"/><path d="M622.53 319.67h-1.03v-2h1.03" fill="#5e5e5e"/><path d="M795.26 318.67L781 323.3v-9.27z" stroke="#5e5e5e" stroke-width="2" fill="#5e5e5e"/><use xlink:href="#c" transform="matrix(1,0,0,1,688.320987654321,293.33333333333337) translate(0 14.222222222222223)"/><path d="M1040 162.5v730.84" stroke="#5e5e5e" stroke-width="2" fill="none"/><path d="M1041 162.53h-2v-1.03h2" fill="#5e5e5e"/><path d="M1040 893.32v4.02M640 480h157.5" stroke="#5e5e5e" stroke-width="2" fill="none"/><path d="M624.74 480l14.26-4.64v9.28z" stroke="#5e5e5e" stroke-width="2" fill="#5e5e5e"/><path d="M798.5 481h-1.03v-2h1.03" fill="#5e5e5e"/><path d="M420 560h4.38m8.75 0h8.75m8.75 0h8.75m8.75 0h8.75m8.75 0h8.74m8.75 0h8.75m8.75 0h8.75m8.75 0h8.75m8.75 0h8.75m8.75 0h4.38" stroke="#5e5e5e" stroke-width="2" fill="none"/><path d="M404.74 560l14.26-4.64v9.28z" stroke="#5e5e5e" stroke-width="2" fill="#5e5e5e"/><path d="M578.5 561h-1.03v-2h1.03" fill="#5e5e5e"/><use xlink:href="#d" transform="matrix(1,0,0,1,453.5061728395061,534.6666666666666) translate(0 14.222222222222223)"/><path d="M200 640h3.94m7.87 0h7.9m7.86 0h7.88m7.87 0h7.9m7.86 0h7.88m7.87 0h7.9m7.86 0h7.88m7.87 0h7.9m7.86 0h7.88m7.87 0h7.9m7.86 0h3.94" stroke="#5e5e5e" stroke-width="2" fill="none"/><path d="M184.74 640l14.26-4.64v9.28z" stroke="#5e5e5e" stroke-width="2" fill="#5e5e5e"/><path d="M358.5 641h-1.03v-2h1.03" fill="#5e5e5e"/><use xlink:href="#e" transform="matrix(1,0,0,1,204.44444444444443,614.6666666666667) translate(0 14.222222222222223)"/><use xlink:href="#f" transform="matrix(1,0,0,1,204.44444444444443,614.6666666666667) translate(77.92592592592595 14.222222222222223)"/><path d="M842.5 360H1000" stroke="#5e5e5e" stroke-width="2" fill="none"/><path d="M842.53 361h-1.03v-2h1.03" fill="#5e5e5e"/><path d="M1015.26 360l-14.26 4.64v-9.28z" stroke="#5e5e5e" stroke-width="2" fill="#5e5e5e"/><use xlink:href="#g" transform="matrix(1,0,0,1,899.9753086419753,334.66666666666674) translate(0 14.222222222222223)"/><path d="M380 162.5V959" stroke="#5e5e5e" stroke-width="2" fill="none"/><path d="M381 162.53h-2v-1.03h2" fill="#5e5e5e"/><path d="M380 958.97V960" stroke="#5e5e5e" stroke-width="2" fill="none"/><path d="M300 86c0-3.3 2.7-6 6-6h148c3.3 0 6 2.7 6 6v68c0 3.3-2.7 6-6 6H306c-3.3 0-6-2.7-6-6z" stroke="#5e5e5e" stroke-width="3" fill="#fff"/><use xlink:href="#h" transform="matrix(1,0,0,1,300,80) translate(37.07999999999999 44.4)"/><path d="M360 226c0-3.3 2.7-6 6-6h28c3.3 0 6 2.7 6 6v628c0 3.3-2.7 6-6 6h-28c-3.3 0-6-2.7-6-6z" stroke="#5e5e5e" stroke-width="3" fill="#fff"/><path d="M600 162.5v730.84" stroke="#5e5e5e" stroke-width="2" fill="none"/><path d="M601 162.53h-2v-1.03h2" fill="#5e5e5e"/><path d="M600 893.32v4.02" stroke="#5e5e5e" stroke-width="2" fill="none"/><path d="M520 86c0-3.3 2.7-6 6-6h148c3.3 0 6 2.7 6 6v68c0 3.3-2.7 6-6 6H526c-3.3 0-6-2.7-6-6z" stroke="#5e5e5e" stroke-width="3" fill="#fff"/><use xlink:href="#i" transform="matrix(1,0,0,1,520,80) translate(51.255 44.4)"/><path d="M580 266c0-3.3 2.7-6 6-6h28c3.3 0 6 2.7 6 6v568c0 3.3-2.7 6-6 6h-28c-3.3 0-6-2.7-6-6z" stroke="#5e5e5e" stroke-width="3" fill="#fff"/><path d="M560 866c0-3.3 2.7-6 6-6h68c3.3 0 6 2.7 6 6v68c0 3.3-2.7 6-6 6h-68c-3.3 0-6-2.7-6-6z" fill="none"/><path d="M568 868l64 64m0-64l-64 64" stroke="#5e5e5e" stroke-width="8" fill="none"/><path d="M820 162.5v410.84" stroke="#5e5e5e" stroke-width="2" fill="none"/><path d="M821 162.53h-2v-1.03h2" fill="#5e5e5e"/><path d="M820 573.32v4.02" stroke="#5e5e5e" stroke-width="2" fill="none"/><path d="M740 86c0-3.3 2.7-6 6-6h148c3.3 0 6 2.7 6 6v68c0 3.3-2.7 6-6 6H746c-3.3 0-6-2.7-6-6z" stroke="#5e5e5e" stroke-width="3" fill="#fff"/><use xlink:href="#j" transform="matrix(1,0,0,1,740,80) translate(47.57999999999999 31.9)"/><use xlink:href="#k" transform="matrix(1,0,0,1,740,80) translate(54.029999999999994 53.5)"/><path d="M800 306c0-3.3 2.7-6 6-6h28c3.3 0 6 2.7 6 6v188c0 3.3-2.7 6-6 6h-28c-3.3 0-6-2.7-6-6z" stroke="#5e5e5e" stroke-width="3" fill="#fff"/><path d="M780 546c0-3.3 2.7-6 6-6h68c3.3 0 6 2.7 6 6v68c0 3.3-2.7 6-6 6h-68c-3.3 0-6-2.7-6-6z" fill="none"/><path d="M788 548l64 64m0-64l-64 64" stroke="#5e5e5e" stroke-width="8" fill="none"/><path d="M640 480h157.5" stroke="#5e5e5e" stroke-width="2" fill="none"/><path d="M624.74 480l14.26-4.64v9.28z" stroke="#5e5e5e" stroke-width="2" fill="#5e5e5e"/><path d="M797.47 480h1.03" stroke="#5e5e5e" stroke-width="2" fill="none"/><use xlink:href="#l" transform="matrix(1,0,0,1,686.8148148148148,454.6666666666666) translate(0 14.222222222222223)"/><path d="M640 800h377.5" stroke="#5e5e5e" stroke-width="2" fill="none"/><path d="M624.74 800l14.26-4.64v9.28z" stroke="#5e5e5e" stroke-width="2" fill="#5e5e5e"/><path d="M1018.5 801h-1.03v-2h1.03" fill="#5e5e5e"/><use xlink:href="#m" transform="matrix(1,0,0,1,779.604938271605,774.6666666666666) translate(0 14.222222222222223)"/><path d="M960 86c0-3.3 2.7-6 6-6h148c3.3 0 6 2.7 6 6v68c0 3.3-2.7 6-6 6H966c-3.3 0-6-2.7-6-6z" stroke="#5e5e5e" stroke-width="3" fill="#fff"/><use xlink:href="#n" transform="matrix(1,0,0,1,960,80) translate(50.555 44.4)"/><path d="M1020 346c0-3.3 2.7-6 6-6h28c3.3 0 6 2.7 6 6v468c0 3.3-2.7 6-6 6h-28c-3.3 0-6-2.7-6-6z" stroke="#5e5e5e" stroke-width="3" fill="#fff"/><path d="M1000 866c0-3.3 2.7-6 6-6h68c3.3 0 6 2.7 6 6v68c0 3.3-2.7 6-6 6h-68c-3.3 0-6-2.7-6-6z" fill="none"/><path d="M1008 868l64 64m0-64l-64 64" stroke="#5e5e5e" stroke-width="8" fill="none"/><path d="M420 820h3.94m7.87 0h7.9m7.86 0h7.88m7.87 0h7.9m7.86 0h7.88m7.87 0h7.9m7.86 0h7.88m7.87 0h7.9m7.86 0h7.88m7.87 0h7.9m7.86 0h3.94" stroke="#5e5e5e" stroke-width="2" fill="none"/><path d="M404.74 820l14.26-4.64v9.28z" stroke="#5e5e5e" stroke-width="2" fill="#5e5e5e"/><path d="M578.5 821h-1.03v-2h1.03" fill="#5e5e5e"/><use xlink:href="#m" transform="matrix(1,0,0,1,449.60493827160496,794.6666666666667) translate(0 14.222222222222223)"/><path d="M182.5 280H340" stroke="#5e5e5e" stroke-width="2" fill="none"/><path d="M182.53 281h-1.03v-2h1.03" fill="#5e5e5e"/><path d="M355.26 280L341 284.64v-9.28z" stroke="#5e5e5e" stroke-width="2" fill="#5e5e5e"/><use xlink:href="#a" transform="matrix(1,0,0,1,255.20987654320987,254.6666666666667) translate(0 14.222222222222223)"/><path d="M182.5 320H340" stroke="#5e5e5e" stroke-width="2" fill="none"/><path d="M182.53 321h-1.03v-2h1.03" fill="#5e5e5e"/><path d="M355.26 320L341 324.64v-9.28z" stroke="#5e5e5e" stroke-width="2" fill="#5e5e5e"/><use xlink:href="#a" transform="matrix(1,0,0,1,255.20987654320987,294.66666666666663) translate(0 14.222222222222223)"/><path d="M160 162.5V959" stroke="#5e5e5e" stroke-width="2" fill="none"/><path d="M161 162.53h-2v-1.03h2" fill="#5e5e5e"/><path d="M160 958.97V960" stroke="#5e5e5e" stroke-width="2" fill="none"/><path d="M80 86c0-3.3 2.7-6 6-6h148c3.3 0 6 2.7 6 6v68c0 3.3-2.7 6-6 6H86c-3.3 0-6-2.7-6-6z" stroke="#5e5e5e" stroke-width="3" fill="#fff"/><use xlink:href="#o" transform="matrix(1,0,0,1,80,80) translate(57.08 44.4)"/><path d="M140 206c0-3.3 2.7-6 6-6h28c3.3 0 6 2.7 6 6v468c0 3.3-2.7 6-6 6h-28c-3.3 0-6-2.7-6-6z" stroke="#5e5e5e" stroke-width="3" fill="#fff"/><defs><path fill="#333" d="M67-125c0 54 23 88 75 88 28 0 53-7 68-21v-34h-60v-39h108v91C232-14 192 4 140 4 58 4 20-42 15-125 8-236 126-280 215-234c19 10 29 26 37 47l-47 15c-11-23-29-39-63-39-53 1-75 33-75 86" id="p"/><path fill="#333" d="M185-48c-13 30-37 53-82 52C43 2 14-33 14-96s30-98 90-98c62 0 83 45 84 108H66c0 31 8 55 39 56 18 0 30-7 34-22zm-45-69c5-46-57-63-70-21-2 6-4 13-4 21h74" id="q"/><path fill="#333" d="M115-3C79 11 28 4 28-45v-112H4v-33h27l15-45h31v45h36v33H77v99c-1 23 16 31 38 25v30" id="r"/><g id="a"><use transform="matrix(0.04938271604938272,0,0,0.04938271604938272,0,0)" xlink:href="#p"/><use transform="matrix(0.04938271604938272,0,0,0.04938271604938272,13.827160493827162,0)" xlink:href="#q"/><use transform="matrix(0.04938271604938272,0,0,0.04938271604938272,23.703703703703706,0)" xlink:href="#r"/></g><path fill="#333" d="M24-248c120-7 223 5 221 122C244-46 201 0 124 0H24v-248zM76-40c74 7 117-18 117-86 0-67-45-88-117-82v168" id="s"/><path fill="#333" d="M25-224v-37h50v37H25zM25 0v-190h50V0H25" id="t"/><path fill="#333" d="M137-138c1-29-70-34-71-4 15 46 118 7 119 86 1 83-164 76-172 9l43-7c4 19 20 25 44 25 33 8 57-30 24-41C81-84 22-81 20-136c-2-80 154-74 161-7" id="u"/><path fill="#333" d="M135-194c53 0 70 44 70 98 0 56-19 98-73 100-31 1-45-17-59-34 3 33 2 69 2 105H25l-1-265h48c2 10 0 23 3 31 11-24 29-35 60-35zM114-30c33 0 39-31 40-66 0-38-9-64-40-64-56 0-55 130 0 130" id="v"/><path fill="#333" d="M133-34C117-15 103 5 69 4 32 3 11-16 11-54c-1-60 55-63 116-61 1-26-3-47-28-47-18 1-26 9-28 27l-52-2c7-38 36-58 82-57s74 22 75 68l1 82c-1 14 12 18 25 15v27c-30 8-71 5-69-32zm-48 3c29 0 43-24 42-57-32 0-66-3-65 30 0 17 8 27 23 27" id="w"/><path fill="#333" d="M190-63c-7 42-38 67-86 67-59 0-84-38-90-98-12-110 154-137 174-36l-49 2c-2-19-15-32-35-32-30 0-35 28-38 64-6 74 65 87 74 30" id="x"/><path fill="#333" d="M114-157C55-157 80-60 75 0H25v-261h50l-1 109c12-26 28-41 61-42 86-1 58 113 63 194h-50c-7-57 23-157-34-157" id="y"/><g id="b"><use transform="matrix(0.04938271604938272,0,0,0.04938271604938272,0,0)" xlink:href="#s"/><use transform="matrix(0.04938271604938272,0,0,0.04938271604938272,12.790123456790125,0)" xlink:href="#t"/><use transform="matrix(0.04938271604938272,0,0,0.04938271604938272,17.7283950617284,0)" xlink:href="#u"/><use transform="matrix(0.04938271604938272,0,0,0.04938271604938272,27.604938271604947,0)" xlink:href="#v"/><use transform="matrix(0.04938271604938272,0,0,0.04938271604938272,38.41975308641976,0)" xlink:href="#w"/><use transform="matrix(0.04938271604938272,0,0,0.04938271604938272,48.296296296296305,0)" xlink:href="#r"/><use transform="matrix(0.04938271604938272,0,0,0.04938271604938272,54.17283950617284,0)" xlink:href="#x"/><use transform="matrix(0.04938271604938272,0,0,0.04938271604938272,64.0493827160494,0)" xlink:href="#y"/></g><path fill="#333" d="M240-174c0 40-23 61-54 70L253 0h-59l-57-94H76V0H24v-248c93 4 217-23 216 74zM76-134c48-2 112 12 112-38 0-48-66-32-112-35v73" id="z"/><path fill="#333" d="M88-194c31-1 46 15 58 34l-1-101h50l1 261h-48c-2-10 0-23-3-31C134-8 116 4 84 4 32 4 16-41 15-95c0-56 19-97 73-99zm17 164c33 0 40-30 41-66 1-37-9-64-41-64s-38 30-39 65c0 43 13 65 39 65" id="A"/><g id="c"><use transform="matrix(0.04938271604938272,0,0,0.04938271604938272,0,0)" xlink:href="#z"/><use transform="matrix(0.04938271604938272,0,0,0.04938271604938272,12.790123456790125,0)" xlink:href="#q"/><use transform="matrix(0.04938271604938272,0,0,0.04938271604938272,22.66666666666667,0)" xlink:href="#w"/><use transform="matrix(0.04938271604938272,0,0,0.04938271604938272,32.543209876543216,0)" xlink:href="#A"/></g><path fill="#333" d="M67-125c0 53 21 87 73 88 37 1 54-22 65-47l45 17C233-25 199 4 140 4 58 4 20-42 15-125 8-235 124-281 211-232c18 10 29 29 36 50l-46 12c-8-25-30-41-62-41-52 0-71 34-72 86" id="B"/><path fill="#333" d="M25 0v-261h50V0H25" id="C"/><path fill="#333" d="M135-194c52 0 70 43 70 98 0 56-19 99-73 100-30 1-46-15-58-35L72 0H24l1-261h50v104c11-23 29-37 60-37zM114-30c31 0 40-27 40-66 0-37-7-63-39-63s-41 28-41 65c0 36 8 64 40 64" id="D"/><path fill="#333" d="M147 0L96-86 75-71V0H25v-261h50v150l67-79h53l-66 74L201 0h-54" id="E"/><g id="d"><use transform="matrix(0.04938271604938272,0,0,0.04938271604938272,0,0)" xlink:href="#B"/><use transform="matrix(0.04938271604938272,0,0,0.04938271604938272,12.790123456790125,0)" xlink:href="#w"/><use transform="matrix(0.04938271604938272,0,0,0.04938271604938272,22.66666666666667,0)" xlink:href="#C"/><use transform="matrix(0.04938271604938272,0,0,0.04938271604938272,27.604938271604947,0)" xlink:href="#C"/><use transform="matrix(0.04938271604938272,0,0,0.04938271604938272,32.543209876543216,0)" xlink:href="#D"/><use transform="matrix(0.04938271604938272,0,0,0.04938271604938272,43.35802469135803,0)" xlink:href="#w"/><use transform="matrix(0.04938271604938272,0,0,0.04938271604938272,53.23456790123457,0)" xlink:href="#x"/><use transform="matrix(0.04938271604938272,0,0,0.04938271604938272,63.111111111111114,0)" xlink:href="#E"/></g><g id="e"><use transform="matrix(0.04938271604938272,0,0,0.04938271604938272,0,0)" xlink:href="#B"/><use transform="matrix(0.04938271604938272,0,0,0.04938271604938272,12.790123456790125,0)" xlink:href="#w"/><use transform="matrix(0.04938271604938272,0,0,0.04938271604938272,22.66666666666667,0)" xlink:href="#C"/><use transform="matrix(0.04938271604938272,0,0,0.04938271604938272,27.604938271604947,0)" xlink:href="#C"/><use transform="matrix(0.04938271604938272,0,0,0.04938271604938272,32.543209876543216,0)" xlink:href="#D"/><use transform="matrix(0.04938271604938272,0,0,0.04938271604938272,43.35802469135803,0)" xlink:href="#w"/><use transform="matrix(0.04938271604938272,0,0,0.04938271604938272,53.23456790123457,0)" xlink:href="#x"/><use transform="matrix(0.04938271604938272,0,0,0.04938271604938272,63.111111111111114,0)" xlink:href="#E"/></g><path fill="#333" d="M67-93c0 74 22 123 53 168H70C40 30 18-18 18-93s22-123 52-168h50c-32 44-53 94-53 168" id="F"/><path fill="#333" d="M220-157c-53 9-28 100-34 157h-49v-107c1-27-5-49-29-50C55-147 81-57 75 0H25l-1-190h47c2 12-1 28 3 38 10-53 101-56 108 0 13-22 24-43 59-42 82 1 51 116 57 194h-49v-107c-1-25-5-48-29-50" id="G"/><path fill="#333" d="M135-194c87-1 58 113 63 194h-50c-7-57 23-157-34-157-59 0-34 97-39 157H25l-1-190h47c2 12-1 28 3 38 12-26 28-41 61-42" id="H"/><path fill="#333" d="M102-93c0 74-22 123-52 168H0C30 29 54-18 53-93c0-74-22-123-53-168h50c30 45 52 94 52 168" id="I"/><g id="f"><use transform="matrix(0.04938271604938272,0,0,0.04938271604938272,0,0)" xlink:href="#F"/><use transform="matrix(0.04938271604938272,0,0,0.04938271604938272,5.8765432098765435,0)" xlink:href="#G"/><use transform="matrix(0.04938271604938272,0,0,0.04938271604938272,21.679012345679013,0)" xlink:href="#w"/><use transform="matrix(0.04938271604938272,0,0,0.04938271604938272,31.555555555555557,0)" xlink:href="#t"/><use transform="matrix(0.04938271604938272,0,0,0.04938271604938272,36.49382716049383,0)" xlink:href="#H"/><use transform="matrix(0.04938271604938272,0,0,0.04938271604938272,47.308641975308646,0)" xlink:href="#I"/></g><path fill="#333" d="M238-95c0 69-44 99-111 99C63 4 22-25 22-93v-155h51v151c-1 38 19 59 55 60 90 1 49-130 58-211h52v153" id="J"/><g id="g"><use transform="matrix(0.04938271604938272,0,0,0.04938271604938272,0,0)" xlink:href="#J"/><use transform="matrix(0.04938271604938272,0,0,0.04938271604938272,12.790123456790125,0)" xlink:href="#v"/><use transform="matrix(0.04938271604938272,0,0,0.04938271604938272,23.60493827160494,0)" xlink:href="#A"/><use transform="matrix(0.04938271604938272,0,0,0.04938271604938272,34.41975308641975,0)" xlink:href="#w"/><use transform="matrix(0.04938271604938272,0,0,0.04938271604938272,44.2962962962963,0)" xlink:href="#r"/><use transform="matrix(0.04938271604938272,0,0,0.04938271604938272,50.17283950617284,0)" xlink:href="#q"/></g><path d="M30-248c118-7 216 8 213 122C240-48 200 0 122 0H30v-248zM63-27c89 8 146-16 146-99s-60-101-146-95v194" id="K"/><path d="M24-231v-30h32v30H24zM24 0v-190h32V0H24" id="L"/><path d="M135-143c-3-34-86-38-87 0 15 53 115 12 119 90S17 21 10-45l28-5c4 36 97 45 98 0-10-56-113-15-118-90-4-57 82-63 122-42 12 7 21 19 24 35" id="M"/><path d="M115-194c55 1 70 41 70 98S169 2 115 4C84 4 66-9 55-30l1 105H24l-1-265h31l2 30c10-21 28-34 59-34zm-8 174c40 0 45-34 45-75s-6-73-45-74c-42 0-51 32-51 76 0 43 10 73 51 73" id="N"/><path d="M141-36C126-15 110 5 73 4 37 3 15-17 15-53c-1-64 63-63 125-63 3-35-9-54-41-54-24 1-41 7-42 31l-33-3c5-37 33-52 76-52 45 0 72 20 72 64v82c-1 20 7 32 28 27v20c-31 9-61-2-59-35zM48-53c0 20 12 33 32 33 41-3 63-29 60-74-43 2-92-5-92 41" id="O"/><path d="M59-47c-2 24 18 29 38 22v24C64 9 27 4 27-40v-127H5v-23h24l9-43h21v43h35v23H59v120" id="P"/><path d="M96-169c-40 0-48 33-48 73s9 75 48 75c24 0 41-14 43-38l32 2c-6 37-31 61-74 61-59 0-76-41-82-99-10-93 101-131 147-64 4 7 5 14 7 22l-32 3c-4-21-16-35-41-35" id="Q"/><path d="M106-169C34-169 62-67 57 0H25v-261h32l-1 103c12-21 28-36 61-36 89 0 53 116 60 194h-32v-121c2-32-8-49-39-48" id="R"/><path d="M100-194c63 0 86 42 84 106H49c0 40 14 67 53 68 26 1 43-12 49-29l28 8c-11 28-37 45-77 45C44 4 14-33 15-96c1-61 26-98 85-98zm52 81c6-60-76-77-97-28-3 7-6 17-6 28h103" id="S"/><path d="M114-163C36-179 61-72 57 0H25l-1-190h30c1 12-1 29 2 39 6-27 23-49 58-41v29" id="T"/><g id="h"><use transform="matrix(0.05,0,0,0.05,0,0)" xlink:href="#K"/><use transform="matrix(0.05,0,0,0.05,12.950000000000001,0)" xlink:href="#L"/><use transform="matrix(0.05,0,0,0.05,16.900000000000002,0)" xlink:href="#M"/><use transform="matrix(0.05,0,0,0.05,25.900000000000002,0)" xlink:href="#N"/><use transform="matrix(0.05,0,0,0.05,35.900000000000006,0)" xlink:href="#O"/><use transform="matrix(0.05,0,0,0.05,45.900000000000006,0)" xlink:href="#P"/><use transform="matrix(0.05,0,0,0.05,50.900000000000006,0)" xlink:href="#Q"/><use transform="matrix(0.05,0,0,0.05,59.900000000000006,0)" xlink:href="#R"/><use transform="matrix(0.05,0,0,0.05,69.9,0)" xlink:href="#S"/><use transform="matrix(0.05,0,0,0.05,79.9,0)" xlink:href="#T"/><path d="M-.9 1.25h87.65v1.32H-.9z"/></g><path d="M266 0h-40l-56-210L115 0H75L2-248h35L96-30l15-64 43-154h32l59 218 59-218h35" id="U"/><path d="M100-194c62-1 85 37 85 99 1 63-27 99-86 99S16-35 15-95c0-66 28-99 85-99zM99-20c44 1 53-31 53-75 0-43-8-75-51-75s-53 32-53 75 10 74 51 75" id="V"/><path d="M143 0L79-87 56-68V0H24v-261h32v163l83-92h37l-77 82L181 0h-38" id="W"/><g id="i"><use transform="matrix(0.05,0,0,0.05,0,0)" xlink:href="#U"/><use transform="matrix(0.05,0,0,0.05,16.599999999999998,0)" xlink:href="#V"/><use transform="matrix(0.05,0,0,0.05,26.599999999999994,0)" xlink:href="#T"/><use transform="matrix(0.05,0,0,0.05,32.55,0)" xlink:href="#W"/><use transform="matrix(0.05,0,0,0.05,41.55,0)" xlink:href="#S"/><use transform="matrix(0.05,0,0,0.05,51.54999999999999,0)" xlink:href="#T"/><path d="M-.9 1.25h59.3v1.32H-.9z"/></g><path d="M240 0l2-218c-23 76-54 145-80 218h-23L58-218 59 0H30v-248h44l77 211c21-75 51-140 76-211h43V0h-30" id="X"/><path d="M210-169c-67 3-38 105-44 169h-31v-121c0-29-5-50-35-48C34-165 62-65 56 0H25l-1-190h30c1 10-1 24 2 32 10-44 99-50 107 0 11-21 27-35 58-36 85-2 47 119 55 194h-31v-121c0-29-5-49-35-48" id="Y"/><path d="M179-190L93 31C79 59 56 82 12 73V49c39 6 53-20 64-50L1-190h34L92-34l54-156h33" id="Z"/><g id="j"><use transform="matrix(0.05,0,0,0.05,0,0)" xlink:href="#X"/><use transform="matrix(0.05,0,0,0.05,14.950000000000001,0)" xlink:href="#S"/><use transform="matrix(0.05,0,0,0.05,24.950000000000003,0)" xlink:href="#Y"/><use transform="matrix(0.05,0,0,0.05,39.900000000000006,0)" xlink:href="#V"/><use transform="matrix(0.05,0,0,0.05,49.900000000000006,0)" xlink:href="#T"/><use transform="matrix(0.05,0,0,0.05,55.85,0)" xlink:href="#Z"/><path d="M-.9 1.25h66.65v1.32H-.9z"/></g><path d="M212-179c-10-28-35-45-73-45-59 0-87 40-87 99 0 60 29 101 89 101 43 0 62-24 78-52l27 14C228-24 195 4 139 4 59 4 22-46 18-125c-6-104 99-153 187-111 19 9 31 26 39 46" id="aa"/><g id="k"><use transform="matrix(0.05,0,0,0.05,0,0)" xlink:href="#aa"/><use transform="matrix(0.05,0,0,0.05,12.950000000000001,0)" xlink:href="#O"/><use transform="matrix(0.05,0,0,0.05,22.950000000000003,0)" xlink:href="#Q"/><use transform="matrix(0.05,0,0,0.05,31.950000000000003,0)" xlink:href="#R"/><use transform="matrix(0.05,0,0,0.05,41.95,0)" xlink:href="#S"/><path d="M-.9 1.25h53.75v1.32H-.9z"/></g><path fill="#333" d="M147 0H94L2-248h55l64 206c17-72 42-137 63-206h54" id="ab"/><path fill="#333" d="M85 4C-2 5 27-109 22-190h50c7 57-23 150 33 157 60-5 35-97 40-157h50l1 190h-47c-2-12 1-28-3-38-12 25-28 42-61 42" id="ac"/><g id="l"><use transform="matrix(0.04938271604938272,0,0,0.04938271604938272,0,0)" xlink:href="#ab"/><use transform="matrix(0.04938271604938272,0,0,0.04938271604938272,10.864197530864198,0)" xlink:href="#w"/><use transform="matrix(0.04938271604938272,0,0,0.04938271604938272,20.74074074074074,0)" xlink:href="#C"/><use transform="matrix(0.04938271604938272,0,0,0.04938271604938272,25.679012345679016,0)" xlink:href="#ac"/><use transform="matrix(0.04938271604938272,0,0,0.04938271604938272,36.49382716049383,0)" xlink:href="#q"/></g><path fill="#333" d="M110-194c64 0 96 36 96 99 0 64-35 99-97 99-61 0-95-36-95-99 0-62 34-99 96-99zm-1 164c35 0 45-28 45-65 0-40-10-65-43-65-34 0-45 26-45 65 0 36 10 65 43 65" id="ad"/><g id="m"><use transform="matrix(0.04938271604938272,0,0,0.04938271604938272,0,0)" xlink:href="#B"/><use transform="matrix(0.04938271604938272,0,0,0.04938271604938272,12.790123456790125,0)" xlink:href="#ad"/><use transform="matrix(0.04938271604938272,0,0,0.04938271604938272,23.60493827160494,0)" xlink:href="#G"/><use transform="matrix(0.04938271604938272,0,0,0.04938271604938272,39.40740740740741,0)" xlink:href="#v"/><use transform="matrix(0.04938271604938272,0,0,0.04938271604938272,50.22222222222223,0)" xlink:href="#C"/><use transform="matrix(0.04938271604938272,0,0,0.04938271604938272,55.1604938271605,0)" xlink:href="#q"/><use transform="matrix(0.04938271604938272,0,0,0.04938271604938272,65.03703703703704,0)" xlink:href="#r"/><use transform="matrix(0.04938271604938272,0,0,0.04938271604938272,70.91358024691358,0)" xlink:href="#q"/></g><path d="M153-248C145-148 188 4 80 4 36 3 13-21 6-62l32-5c4 25 16 42 43 43 27 0 39-20 39-49v-147H72v-28h81" id="ae"/><path d="M84 4C-5 8 30-112 23-190h32v120c0 31 7 50 39 49 72-2 45-101 50-169h31l1 190h-30c-1-10 1-25-2-33-11 22-28 36-60 37" id="af"/><path d="M117-194c89-4 53 116 60 194h-32v-121c0-31-8-49-39-48C34-167 62-67 57 0H25l-1-190h30c1 10-1 24 2 32 11-22 29-35 61-36" id="ag"/><path d="M24 0v-261h32V0H24" id="ah"/><g id="n"><use transform="matrix(0.05,0,0,0.05,0,0)" xlink:href="#ae"/><use transform="matrix(0.05,0,0,0.05,9,0)" xlink:href="#V"/><use transform="matrix(0.05,0,0,0.05,19,0)" xlink:href="#af"/><use transform="matrix(0.05,0,0,0.05,29,0)" xlink:href="#T"/><use transform="matrix(0.05,0,0,0.05,34.95,0)" xlink:href="#ag"/><use transform="matrix(0.05,0,0,0.05,44.95,0)" xlink:href="#O"/><use transform="matrix(0.05,0,0,0.05,54.95,0)" xlink:href="#ah"/><path d="M-.9 1.25h60.7v1.32H-.9z"/></g><g id="o"><use transform="matrix(0.05,0,0,0.05,0,0)" xlink:href="#aa"/><use transform="matrix(0.05,0,0,0.05,12.950000000000001,0)" xlink:href="#ah"/><use transform="matrix(0.05,0,0,0.05,16.900000000000002,0)" xlink:href="#L"/><use transform="matrix(0.05,0,0,0.05,20.85,0)" xlink:href="#S"/><use transform="matrix(0.05,0,0,0.05,30.85,0)" xlink:href="#ag"/><use transform="matrix(0.05,0,0,0.05,40.85,0)" xlink:href="#P"/><path d="M-.9 1.25h47.65v1.32H-.9z"/></g></defs></g></svg>