<svg xmlns="http://www.w3.org/2000/svg" xmlns:xlink="http://www.w3.org/1999/xlink" xmlns:lucid="lucid" width="997" height="520"><g transform="translate(0 0)" lucid:page-tab-id="RIMwsKPd65v0"><path d="M0 0h1760v1360H0z" fill="#fff"/><path d="M280 26c0-3.3 2.7-6 6-6h148c3.3 0 6 2.7 6 6v108c0 3.3-2.7 6-6 6H286c-3.3 0-6-2.7-6-6z" stroke="#5e5e5e" stroke-width="3" fill="#fff"/><use xlink:href="#a" transform="matrix(1,0,0,1,292,32) translate(39.08024691358025 38.77777777777778)"/><use xlink:href="#b" transform="matrix(1,0,0,1,292,32) translate(39.69753086419753 65.44444444444446)"/><path d="M280 206c0-3.3 2.7-6 6-6h148c3.3 0 6 2.7 6 6v108c0 3.3-2.7 6-6 6H286c-3.3 0-6-2.7-6-6z" stroke="#5e5e5e" stroke-width="3" fill="#fff"/><use xlink:href="#c" transform="matrix(1,0,0,1,292,212) translate(11.456790123456784 38.77777777777778)"/><use xlink:href="#b" transform="matrix(1,0,0,1,292,212) translate(39.69753086419753 65.44444444444446)"/><path d="M44 204c-13.25 0-24-10.75-24-24 0-10.6 6.5-19.55 16.58-22.83C36 126 76 120 92 132c8-18 48-12 48 6 24-6 48 18 32 48 16 24 0 54-32 42-8 15.6-40 15.6-48 0-16 12-48 6-48-24z" stroke="#5e5e5e" stroke-width="3" fill="#fff"/><use xlink:href="#d" transform="matrix(1,0,0,1,25,125) translate(30.29012345679012 59.02777777777778)"/><path d="M280 386c0-3.3 2.7-6 6-6h148c3.3 0 6 2.7 6 6v108c0 3.3-2.7 6-6 6H286c-3.3 0-6-2.7-6-6z" stroke="#5e5e5e" stroke-width="3" fill="#fff"/><use xlink:href="#e" transform="matrix(1,0,0,1,292,392) translate(39.04938271604939 26.77777777777778)"/><use xlink:href="#f" transform="matrix(1,0,0,1,292,392) translate(14.358024691358011 53.44444444444445)"/><use xlink:href="#b" transform="matrix(1,0,0,1,292,392) translate(39.69753086419753 80.11111111111111)"/><path d="M44 464c-13.25 0-24-10.75-24-24 0-10.6 6.5-19.55 16.58-22.83C36 386 76 380 92 392c8-18 48-12 48 6 24-6 48 18 32 48 16 24 0 54-32 42-8 15.6-40 15.6-48 0-16 12-48 6-48-24z" stroke="#5e5e5e" stroke-width="3" fill="#fff"/><use xlink:href="#g" transform="matrix(1,0,0,1,25,385) translate(54.69635802469136 45.27777777777778)"/><use xlink:href="#h" transform="matrix(1,0,0,1,25,385) translate(41.739567901234565 71.94444444444446)"/><path d="M99.5 238.3v125.82" stroke="#5e5e5e" stroke-width="2" fill="none"/><path d="M100.22 237.7l.28.13v.5h-2v-1.6" fill="#5e5e5e"/><path d="M99.5 379.38l-4.63-14.26h9.27z" stroke="#5e5e5e" stroke-width="2" fill="#5e5e5e"/><path d="M277.5 59.2l-66.32.1-14.1.87-10.34 1.07-8.14 1.2-6.7 1.27-5.62 1.33-4.84 1.35-4.2 1.36-3.72 1.38-3.3 1.4-2.97 1.38-2.68 1.4-2.44 1.4-2.23 1.43-2.05 1.42-1.9 1.44-1.76 1.44-1.64 1.48-1.53 1.5-1.42 1.5-1.33 1.56-1.26 1.6-1.17 1.6-1.1 1.7-1.06 1.7-.98 1.8-.93 1.86-.87 1.94-.8 2.02-.33.95" stroke="#5e5e5e" stroke-width="2" fill="none"/><path d="M278.5 60.2h-1.03v-2h1.03" fill="#5e5e5e"/><path d="M116.98 116.6l-1.94-14.9 9.12 1.72z" stroke="#5e5e5e" stroke-width="2" fill="#5e5e5e"/><path d="M158.25 136.45l.64-1.78 1-2.5 1.07-2.3 1.1-2.15 1.1-2 1.17-1.86 1.2-1.76 1.23-1.66 1.28-1.57 1.32-1.5 1.37-1.43 1.42-1.37 1.5-1.3 1.55-1.27 1.65-1.2 1.72-1.2 1.84-1.12 1.96-1.1 2.1-1.07 2.25-1.02 2.46-1 2.68-.96 2.97-.93 3.33-.9 3.76-.83 4.35-.78 5.17-.72 6.4-.6 8.5-.43 14.02-.1 19.66.37" stroke="#5e5e5e" stroke-width="2" fill="none"/><path d="M159.2 136.76l-.34.95-1.9-.63.36-1" fill="#5e5e5e"/><path d="M275.26 98.72l-14.35 4.36.2-9.27z" stroke="#5e5e5e" stroke-width="2" fill="#5e5e5e"/><path d="M277.5 240.96l-50.3.86-6.27-.45-5.15-.6-4.52-.77-4.12-.9-3.87-1.05-3.7-1.2-3.64-1.36-3.6-1.56-2.58-1.26" stroke="#5e5e5e" stroke-width="2" fill="none"/><path d="M278.5 241.95h-1l-.04-2h1.04" fill="#5e5e5e"/><path d="M176.9 224.5l14.52 3.74-4.97 7.83z" stroke="#5e5e5e" stroke-width="2" fill="#5e5e5e"/><path d="M130 239.58l1.17 2.45 1.6 3.05 1.65 2.8 1.66 2.6 1.7 2.42 1.7 2.24 1.77 2.1 1.8 1.98 1.83 1.86 1.9 1.77 1.95 1.67 2.03 1.6 2.1 1.5 2.2 1.46 2.33 1.4 2.43 1.32 2.6 1.27 2.77 1.22 2.98 1.15 3.23 1.1 3.56 1.06 3.94 1 4.42.92 5.1.84 5.97.72 7.35.58 9.75.35 16-.1 32.5-1" stroke="#5e5e5e" stroke-width="2" fill="none"/><path d="M130.92 239.18l-1.8.86-.48-1 .52-.17 1.33-.6" fill="#5e5e5e"/><path d="M275.27 280.44l-14.12 5.07-.3-9.25z" stroke="#5e5e5e" stroke-width="2" fill="#5e5e5e"/><path d="M177.2 440.2H260" stroke="#5e5e5e" stroke-width="2" fill="none"/><path d="M177.22 441.2h-1.36l.66-2h.7" fill="#5e5e5e"/><path d="M275.26 440.2L261 444.83v-9.27z" stroke="#5e5e5e" stroke-width="2" fill="#5e5e5e"/><path d="M817 126c0-3.3 2.7-6 6-6h148c3.3 0 6 2.7 6 6v108c0 3.3-2.7 6-6 6H823c-3.3 0-6-2.7-6-6z" stroke="#5e5e5e" stroke-width="3" fill="#fff"/><use xlink:href="#i" transform="matrix(1,0,0,1,829,132) translate(11.24074074074074 38.77777777777778)"/><use xlink:href="#j" transform="matrix(1,0,0,1,829,132) translate(64.26543209876544 38.77777777777778)"/><use xlink:href="#k" transform="matrix(1,0,0,1,829,132) translate(31.02469135802469 65.44444444444446)"/><path d="M817 306c0-3.3 2.7-6 6-6h148c3.3 0 6 2.7 6 6v108c0 3.3-2.7 6-6 6H823c-3.3 0-6-2.7-6-6z" stroke="#5e5e5e" stroke-width="3" fill="#fff"/><use xlink:href="#i" transform="matrix(1,0,0,1,829,312) translate(11.919753086419753 38.77777777777778)"/><use xlink:href="#l" transform="matrix(1,0,0,1,829,312) translate(64.94444444444446 38.77777777777778)"/><use xlink:href="#k" transform="matrix(1,0,0,1,829,312) translate(31.02469135802469 65.44444444444446)"/><path d="M497.5 59.62H460" stroke="#5e5e5e" stroke-width="2" fill="none"/><path d="M498.5 60.62h-1.03v-2h1.03" fill="#5e5e5e"/><path d="M444.74 59.62L459 54.98v9.27z" stroke="#5e5e5e" stroke-width="2" fill="#5e5e5e"/><path d="M442.5 99.46H480" stroke="#5e5e5e" stroke-width="2" fill="none"/><path d="M442.53 100.46h-1.03v-2h1.03" fill="#5e5e5e"/><path d="M495.26 99.46L481 104.1v-9.27z" stroke="#5e5e5e" stroke-width="2" fill="#5e5e5e"/><path d="M497.5 238.66H460" stroke="#5e5e5e" stroke-width="2" fill="none"/><path d="M498.5 239.66h-1.03v-2h1.03" fill="#5e5e5e"/><path d="M444.74 238.66l14.26-4.63v9.27z" stroke="#5e5e5e" stroke-width="2" fill="#5e5e5e"/><path d="M442.5 279.52H480" stroke="#5e5e5e" stroke-width="2" fill="none"/><path d="M442.53 280.52h-1.03v-2h1.03" fill="#5e5e5e"/><path d="M495.26 279.52L481 284.15v-9.27z" stroke="#5e5e5e" stroke-width="2" fill="#5e5e5e"/><path d="M442.5 440H480" stroke="#5e5e5e" stroke-width="2" fill="none"/><path d="M442.53 441h-1.03v-2h1.03" fill="#5e5e5e"/><path d="M495.26 440L481 444.64v-9.28z" stroke="#5e5e5e" stroke-width="2" fill="#5e5e5e"/><path d="M597.5 237.67H560" stroke="#5e5e5e" stroke-width="2" fill="none"/><path d="M598.5 238.67h-1.03v-2h1.03" fill="#5e5e5e"/><path d="M544.74 237.67l14.26-4.64v9.27z" stroke="#5e5e5e" stroke-width="2" fill="#5e5e5e"/><path d="M542.5 282.52H580" stroke="#5e5e5e" stroke-width="2" fill="none"/><path d="M542.53 283.52h-1.03v-2h1.03" fill="#5e5e5e"/><path d="M595.26 282.52L581 287.15v-9.27z" stroke="#5e5e5e" stroke-width="2" fill="#5e5e5e"/><path d="M814.5 159.67H780" stroke="#5e5e5e" stroke-width="2" fill="none"/><path d="M815.5 160.67h-1.03v-2h1.03" fill="#5e5e5e"/><path d="M764.74 159.67l14.26-4.64v9.27z" stroke="#5e5e5e" stroke-width="2" fill="#5e5e5e"/><path d="M762.5 200.62H797" stroke="#5e5e5e" stroke-width="2" fill="none"/><path d="M762.53 201.62h-1.03v-2h1.03" fill="#5e5e5e"/><path d="M812.26 200.62L798 205.25v-9.27z" stroke="#5e5e5e" stroke-width="2" fill="#5e5e5e"/><path d="M814.5 340.04H780" stroke="#5e5e5e" stroke-width="2" fill="none"/><path d="M815.5 341.04h-1.03v-2h1.03" fill="#5e5e5e"/><path d="M764.74 340.04L779 335.4v9.28z" stroke="#5e5e5e" stroke-width="2" fill="#5e5e5e"/><path d="M762.5 380.02H797" stroke="#5e5e5e" stroke-width="2" fill="none"/><path d="M762.53 381.02h-1.03v-2h1.03" fill="#5e5e5e"/><path d="M812.26 380.02L798 384.65v-9.27z" stroke="#5e5e5e" stroke-width="2" fill="#5e5e5e"/><path d="M600 26c0-3.3 2.7-6 6-6h148c3.3 0 6 2.7 6 6v468c0 3.3-2.7 6-6 6H606c-3.3 0-6-2.7-6-6z" stroke="#5e5e5e" stroke-width="3" fill="#fff"/><g><use xlink:href="#m" transform="matrix(1,0,0,1,612,32) translate(26.672839506172842 217.27777777777777)"/><use xlink:href="#n" transform="matrix(1,0,0,1,612,32) translate(15.006172839506164 243.94444444444443)"/></g><g><path d="M506 500c-3.3 0-6-2.7-6-6V26c0-3.3 2.7-6 6-6h28c3.3 0 6 2.7 6 6v468c0 3.3-2.7 6-6 6z" stroke="#5e5e5e" stroke-width="3" fill="#fff"/></g><g><use xlink:href="#o" transform="matrix(6.123233995736766e-17,-1,1,6.123233995736766e-17,512,487.99999999999994) translate(146.05555555555554 17.77777777777778)"/><use xlink:href="#p" transform="matrix(6.123233995736766e-17,-1,1,6.123233995736766e-17,512,487.99999999999994) translate(212.59876543209873 17.77777777777778)"/></g><defs><path fill="#333" d="M197 0v-115H63V0H30v-248h33v105h134v-105h34V0h-34" id="q"/><path fill="#333" d="M127-220V0H93v-220H8v-28h204v28h-85" id="r"/><path fill="#333" d="M30-248c87 1 191-15 191 75 0 78-77 80-158 76V0H30v-248zm33 125c57 0 124 11 124-50 0-59-68-47-124-48v98" id="s"/><g id="a"><use transform="matrix(0.06172839506172839,0,0,0.06172839506172839,0,0)" xlink:href="#q"/><use transform="matrix(0.06172839506172839,0,0,0.06172839506172839,15.987654320987653,0)" xlink:href="#r"/><use transform="matrix(0.06172839506172839,0,0,0.06172839506172839,29.50617283950617,0)" xlink:href="#r"/><use transform="matrix(0.06172839506172839,0,0,0.06172839506172839,43.02469135802469,0)" xlink:href="#s"/></g><path fill="#333" d="M212-179c-10-28-35-45-73-45-59 0-87 40-87 99 0 60 29 101 89 101 43 0 62-24 78-52l27 14C228-24 195 4 139 4 59 4 22-46 18-125c-6-104 99-153 187-111 19 9 31 26 39 46" id="t"/><path fill="#333" d="M24 0v-261h32V0H24" id="u"/><path fill="#333" d="M24-231v-30h32v30H24zM24 0v-190h32V0H24" id="v"/><path fill="#333" d="M100-194c63 0 86 42 84 106H49c0 40 14 67 53 68 26 1 43-12 49-29l28 8c-11 28-37 45-77 45C44 4 14-33 15-96c1-61 26-98 85-98zm52 81c6-60-76-77-97-28-3 7-6 17-6 28h103" id="w"/><path fill="#333" d="M117-194c89-4 53 116 60 194h-32v-121c0-31-8-49-39-48C34-167 62-67 57 0H25l-1-190h30c1 10-1 24 2 32 11-22 29-35 61-36" id="x"/><path fill="#333" d="M59-47c-2 24 18 29 38 22v24C64 9 27 4 27-40v-127H5v-23h24l9-43h21v43h35v23H59v120" id="y"/><g id="b"><use transform="matrix(0.06172839506172839,0,0,0.06172839506172839,0,0)" xlink:href="#t"/><use transform="matrix(0.06172839506172839,0,0,0.06172839506172839,15.987654320987653,0)" xlink:href="#u"/><use transform="matrix(0.06172839506172839,0,0,0.06172839506172839,20.864197530864196,0)" xlink:href="#v"/><use transform="matrix(0.06172839506172839,0,0,0.06172839506172839,25.74074074074074,0)" xlink:href="#w"/><use transform="matrix(0.06172839506172839,0,0,0.06172839506172839,38.08641975308642,0)" xlink:href="#x"/><use transform="matrix(0.06172839506172839,0,0,0.06172839506172839,50.432098765432094,0)" xlink:href="#y"/></g><path fill="#333" d="M266 0h-40l-56-210L115 0H75L2-248h35L96-30l15-64 43-154h32l59 218 59-218h35" id="z"/><path fill="#333" d="M115-194c53 0 69 39 70 98 0 66-23 100-70 100C84 3 66-7 56-30L54 0H23l1-261h32v101c10-23 28-34 59-34zm-8 174c40 0 45-34 45-75 0-40-5-75-45-74-42 0-51 32-51 76 0 43 10 73 51 73" id="A"/><path fill="#333" d="M185-189c-5-48-123-54-124 2 14 75 158 14 163 119 3 78-121 87-175 55-17-10-28-26-33-46l33-7c5 56 141 63 141-1 0-78-155-14-162-118-5-82 145-84 179-34 5 7 8 16 11 25" id="B"/><path fill="#333" d="M100-194c62-1 85 37 85 99 1 63-27 99-86 99S16-35 15-95c0-66 28-99 85-99zM99-20c44 1 53-31 53-75 0-43-8-75-51-75s-53 32-53 75 10 74 51 75" id="C"/><path fill="#333" d="M96-169c-40 0-48 33-48 73s9 75 48 75c24 0 41-14 43-38l32 2c-6 37-31 61-74 61-59 0-76-41-82-99-10-93 101-131 147-64 4 7 5 14 7 22l-32 3c-4-21-16-35-41-35" id="D"/><path fill="#333" d="M143 0L79-87 56-68V0H24v-261h32v163l83-92h37l-77 82L181 0h-38" id="E"/><g id="c"><use transform="matrix(0.06172839506172839,0,0,0.06172839506172839,0,0)" xlink:href="#z"/><use transform="matrix(0.06172839506172839,0,0,0.06172839506172839,20.493827160493826,0)" xlink:href="#w"/><use transform="matrix(0.06172839506172839,0,0,0.06172839506172839,32.839506172839506,0)" xlink:href="#A"/><use transform="matrix(0.06172839506172839,0,0,0.06172839506172839,45.18518518518518,0)" xlink:href="#B"/><use transform="matrix(0.06172839506172839,0,0,0.06172839506172839,60,0)" xlink:href="#C"/><use transform="matrix(0.06172839506172839,0,0,0.06172839506172839,72.34567901234568,0)" xlink:href="#D"/><use transform="matrix(0.06172839506172839,0,0,0.06172839506172839,83.4567901234568,0)" xlink:href="#E"/><use transform="matrix(0.06172839506172839,0,0,0.06172839506172839,94.56790123456791,0)" xlink:href="#w"/><use transform="matrix(0.06172839506172839,0,0,0.06172839506172839,106.9135802469136,0)" xlink:href="#y"/></g><path fill="#333" d="M160-131c35 5 61 23 61 61C221 17 115-2 30 0v-248c76 3 177-17 177 60 0 33-19 50-47 57zm-97-11c50-1 110 9 110-42 0-47-63-36-110-37v79zm0 115c55-2 124 14 124-45 0-56-70-42-124-44v89" id="F"/><path fill="#333" d="M141-36C126-15 110 5 73 4 37 3 15-17 15-53c-1-64 63-63 125-63 3-35-9-54-41-54-24 1-41 7-42 31l-33-3c5-37 33-52 76-52 45 0 72 20 72 64v82c-1 20 7 32 28 27v20c-31 9-61-2-59-35zM48-53c0 20 12 33 32 33 41-3 63-29 60-74-43 2-92-5-92 41" id="G"/><path fill="#333" d="M85-194c31 0 48 13 60 33l-1-100h32l1 261h-30c-2-10 0-23-3-31C134-8 116 4 85 4 32 4 16-35 15-94c0-66 23-100 70-100zm9 24c-40 0-46 34-46 75 0 40 6 74 45 74 42 0 51-32 51-76 0-42-9-74-50-73" id="H"/><g id="d"><use transform="matrix(0.06172839506172839,0,0,0.06172839506172839,0,0)" xlink:href="#F"/><use transform="matrix(0.06172839506172839,0,0,0.06172839506172839,14.814814814814813,0)" xlink:href="#G"/><use transform="matrix(0.06172839506172839,0,0,0.06172839506172839,27.160493827160494,0)" xlink:href="#D"/><use transform="matrix(0.06172839506172839,0,0,0.06172839506172839,38.27160493827161,0)" xlink:href="#E"/><use transform="matrix(0.06172839506172839,0,0,0.06172839506172839,49.38271604938272,0)" xlink:href="#w"/><use transform="matrix(0.06172839506172839,0,0,0.06172839506172839,61.7283950617284,0)" xlink:href="#x"/><use transform="matrix(0.06172839506172839,0,0,0.06172839506172839,74.07407407407408,0)" xlink:href="#H"/></g><path fill="#333" d="M84 4C-5 8 30-112 23-190h32v120c0 31 7 50 39 49 72-2 45-101 50-169h31l1 190h-30c-1-10 1-25-2-33-11 22-28 36-60 37" id="I"/><g id="e"><use transform="matrix(0.06172839506172839,0,0,0.06172839506172839,0,0)" xlink:href="#t"/><use transform="matrix(0.06172839506172839,0,0,0.06172839506172839,15.987654320987653,0)" xlink:href="#u"/><use transform="matrix(0.06172839506172839,0,0,0.06172839506172839,20.864197530864196,0)" xlink:href="#C"/><use transform="matrix(0.06172839506172839,0,0,0.06172839506172839,33.20987654320987,0)" xlink:href="#I"/><use transform="matrix(0.06172839506172839,0,0,0.06172839506172839,45.55555555555555,0)" xlink:href="#H"/></g><path fill="#333" d="M240 0l2-218c-23 76-54 145-80 218h-23L58-218 59 0H30v-248h44l77 211c21-75 51-140 76-211h43V0h-30" id="J"/><path fill="#333" d="M135-143c-3-34-86-38-87 0 15 53 115 12 119 90S17 21 10-45l28-5c4 36 97 45 98 0-10-56-113-15-118-90-4-57 82-63 122-42 12 7 21 19 24 35" id="K"/><path fill="#333" d="M177-190C167-65 218 103 67 71c-23-6-38-20-44-43l32-5c15 47 100 32 89-28v-30C133-14 115 1 83 1 29 1 15-40 15-95c0-56 16-97 71-98 29-1 48 16 59 35 1-10 0-23 2-32h30zM94-22c36 0 50-32 50-73 0-42-14-75-50-75-39 0-46 34-46 75s6 73 46 73" id="L"/><g id="f"><use transform="matrix(0.06172839506172839,0,0,0.06172839506172839,0,0)" xlink:href="#J"/><use transform="matrix(0.06172839506172839,0,0,0.06172839506172839,18.456790123456788,0)" xlink:href="#w"/><use transform="matrix(0.06172839506172839,0,0,0.06172839506172839,30.80246913580247,0)" xlink:href="#K"/><use transform="matrix(0.06172839506172839,0,0,0.06172839506172839,41.91358024691358,0)" xlink:href="#K"/><use transform="matrix(0.06172839506172839,0,0,0.06172839506172839,53.0246913580247,0)" xlink:href="#G"/><use transform="matrix(0.06172839506172839,0,0,0.06172839506172839,65.37037037037038,0)" xlink:href="#L"/><use transform="matrix(0.06172839506172839,0,0,0.06172839506172839,77.71604938271606,0)" xlink:href="#v"/><use transform="matrix(0.06172839506172839,0,0,0.06172839506172839,82.59259259259261,0)" xlink:href="#x"/><use transform="matrix(0.06172839506172839,0,0,0.06172839506172839,94.9382716049383,0)" xlink:href="#L"/></g><path fill="#333" d="M106-169C34-169 62-67 57 0H25v-261h32l-1 103c12-21 28-36 61-36 89 0 53 116 60 194h-32v-121c2-32-8-49-39-48" id="M"/><g id="g"><use transform="matrix(0.06172839506172839,0,0,0.06172839506172839,0,0)" xlink:href="#s"/><use transform="matrix(0.06172839506172839,0,0,0.06172839506172839,14.814814814814813,0)" xlink:href="#I"/><use transform="matrix(0.06172839506172839,0,0,0.06172839506172839,27.160493827160494,0)" xlink:href="#K"/><use transform="matrix(0.06172839506172839,0,0,0.06172839506172839,38.27160493827161,0)" xlink:href="#M"/></g><path fill="#333" d="M114-163C36-179 61-72 57 0H25l-1-190h30c1 12-1 29 2 39 6-27 23-49 58-41v29" id="N"/><path fill="#333" d="M108 0H70L1-190h34L89-25l56-165h34" id="O"/><g id="h"><use transform="matrix(0.06172839506172839,0,0,0.06172839506172839,0,0)" xlink:href="#s"/><use transform="matrix(0.06172839506172839,0,0,0.06172839506172839,14.814814814814813,0)" xlink:href="#N"/><use transform="matrix(0.06172839506172839,0,0,0.06172839506172839,22.160493827160494,0)" xlink:href="#C"/><use transform="matrix(0.06172839506172839,0,0,0.06172839506172839,34.50617283950617,0)" xlink:href="#O"/><use transform="matrix(0.06172839506172839,0,0,0.06172839506172839,45.61728395061728,0)" xlink:href="#v"/><use transform="matrix(0.06172839506172839,0,0,0.06172839506172839,50.49382716049382,0)" xlink:href="#H"/><use transform="matrix(0.06172839506172839,0,0,0.06172839506172839,62.8395061728395,0)" xlink:href="#w"/><use transform="matrix(0.06172839506172839,0,0,0.06172839506172839,75.18518518518518,0)" xlink:href="#N"/></g><g id="i"><use transform="matrix(0.06172839506172839,0,0,0.06172839506172839,0,0)" xlink:href="#t"/><use transform="matrix(0.06172839506172839,0,0,0.06172839506172839,15.987654320987653,0)" xlink:href="#M"/><use transform="matrix(0.06172839506172839,0,0,0.06172839506172839,28.333333333333332,0)" xlink:href="#G"/><use transform="matrix(0.06172839506172839,0,0,0.06172839506172839,40.67901234567901,0)" xlink:href="#y"/></g><path fill="#333" d="M30 0v-248h33v221h125V0H30" id="P"/><path fill="#333" d="M179-190L93 31C79 59 56 82 12 73V49c39 6 53-20 64-50L1-190h34L92-34l54-156h33" id="Q"/><g id="j"><use transform="matrix(0.06172839506172839,0,0,0.06172839506172839,0,0)" xlink:href="#P"/><use transform="matrix(0.06172839506172839,0,0,0.06172839506172839,12.345679012345679,0)" xlink:href="#C"/><use transform="matrix(0.06172839506172839,0,0,0.06172839506172839,24.691358024691358,0)" xlink:href="#A"/><use transform="matrix(0.06172839506172839,0,0,0.06172839506172839,37.03703703703704,0)" xlink:href="#A"/><use transform="matrix(0.06172839506172839,0,0,0.06172839506172839,49.382716049382715,0)" xlink:href="#Q"/></g><g id="k"><use transform="matrix(0.06172839506172839,0,0,0.06172839506172839,0,0)" xlink:href="#B"/><use transform="matrix(0.06172839506172839,0,0,0.06172839506172839,14.814814814814813,0)" xlink:href="#w"/><use transform="matrix(0.06172839506172839,0,0,0.06172839506172839,27.160493827160494,0)" xlink:href="#N"/><use transform="matrix(0.06172839506172839,0,0,0.06172839506172839,34.50617283950617,0)" xlink:href="#O"/><use transform="matrix(0.06172839506172839,0,0,0.06172839506172839,45.61728395061728,0)" xlink:href="#v"/><use transform="matrix(0.06172839506172839,0,0,0.06172839506172839,50.49382716049382,0)" xlink:href="#D"/><use transform="matrix(0.06172839506172839,0,0,0.06172839506172839,61.60493827160494,0)" xlink:href="#w"/></g><path fill="#333" d="M233-177c-1 41-23 64-60 70L243 0h-38l-65-103H63V0H30v-248c88 3 205-21 203 71zM63-129c60-2 137 13 137-47 0-61-80-42-137-45v92" id="R"/><path fill="#333" d="M210-169c-67 3-38 105-44 169h-31v-121c0-29-5-50-35-48C34-165 62-65 56 0H25l-1-190h30c1 10-1 24 2 32 10-44 99-50 107 0 11-21 27-35 58-36 85-2 47 119 55 194h-31v-121c0-29-5-49-35-48" id="S"/><g id="l"><use transform="matrix(0.06172839506172839,0,0,0.06172839506172839,0,0)" xlink:href="#R"/><use transform="matrix(0.06172839506172839,0,0,0.06172839506172839,15.987654320987653,0)" xlink:href="#C"/><use transform="matrix(0.06172839506172839,0,0,0.06172839506172839,28.333333333333332,0)" xlink:href="#C"/><use transform="matrix(0.06172839506172839,0,0,0.06172839506172839,40.67901234567901,0)" xlink:href="#S"/></g><path fill="#333" d="M145-31C134-9 116 4 85 4 32 4 16-35 15-94c0-59 17-99 70-100 32-1 48 14 60 33 0-11-1-24 2-32h30l-1 268h-32zM93-21c41 0 51-33 51-76s-8-73-50-73c-40 0-46 35-46 75s5 74 45 74" id="T"/><g id="m"><use transform="matrix(0.06172839506172839,0,0,0.06172839506172839,0,0)" xlink:href="#R"/><use transform="matrix(0.06172839506172839,0,0,0.06172839506172839,15.987654320987653,0)" xlink:href="#w"/><use transform="matrix(0.06172839506172839,0,0,0.06172839506172839,28.333333333333332,0)" xlink:href="#T"/><use transform="matrix(0.06172839506172839,0,0,0.06172839506172839,40.67901234567901,0)" xlink:href="#I"/><use transform="matrix(0.06172839506172839,0,0,0.06172839506172839,53.02469135802469,0)" xlink:href="#w"/><use transform="matrix(0.06172839506172839,0,0,0.06172839506172839,65.37037037037037,0)" xlink:href="#K"/><use transform="matrix(0.06172839506172839,0,0,0.06172839506172839,76.48148148148148,0)" xlink:href="#y"/></g><path fill="#333" d="M30-248c118-7 216 8 213 122C240-48 200 0 122 0H30v-248zM63-27c89 8 146-16 146-99s-60-101-146-95v194" id="U"/><path fill="#333" d="M115-194c55 1 70 41 70 98S169 2 115 4C84 4 66-9 55-30l1 105H24l-1-265h31l2 30c10-21 28-34 59-34zm-8 174c40 0 45-34 45-75s-6-73-45-74c-42 0-51 32-51 76 0 43 10 73 51 73" id="V"/><g id="n"><use transform="matrix(0.06172839506172839,0,0,0.06172839506172839,0,0)" xlink:href="#U"/><use transform="matrix(0.06172839506172839,0,0,0.06172839506172839,15.987654320987653,0)" xlink:href="#v"/><use transform="matrix(0.06172839506172839,0,0,0.06172839506172839,20.864197530864196,0)" xlink:href="#K"/><use transform="matrix(0.06172839506172839,0,0,0.06172839506172839,31.975308641975307,0)" xlink:href="#V"/><use transform="matrix(0.06172839506172839,0,0,0.06172839506172839,44.32098765432099,0)" xlink:href="#G"/><use transform="matrix(0.06172839506172839,0,0,0.06172839506172839,56.666666666666664,0)" xlink:href="#y"/><use transform="matrix(0.06172839506172839,0,0,0.06172839506172839,62.839506172839506,0)" xlink:href="#D"/><use transform="matrix(0.06172839506172839,0,0,0.06172839506172839,73.95061728395062,0)" xlink:href="#M"/><use transform="matrix(0.06172839506172839,0,0,0.06172839506172839,86.2962962962963,0)" xlink:href="#w"/><use transform="matrix(0.06172839506172839,0,0,0.06172839506172839,98.64197530864199,0)" xlink:href="#N"/></g><g id="o"><use transform="matrix(0.06172839506172839,0,0,0.06172839506172839,0,0)" xlink:href="#J"/><use transform="matrix(0.06172839506172839,0,0,0.06172839506172839,18.456790123456788,0)" xlink:href="#C"/><use transform="matrix(0.06172839506172839,0,0,0.06172839506172839,30.80246913580247,0)" xlink:href="#H"/><use transform="matrix(0.06172839506172839,0,0,0.06172839506172839,43.148148148148145,0)" xlink:href="#w"/><use transform="matrix(0.06172839506172839,0,0,0.06172839506172839,55.49382716049382,0)" xlink:href="#u"/></g><g id="p"><use transform="matrix(0.06172839506172839,0,0,0.06172839506172839,0,0)" xlink:href="#t"/><use transform="matrix(0.06172839506172839,0,0,0.06172839506172839,15.987654320987653,0)" xlink:href="#C"/><use transform="matrix(0.06172839506172839,0,0,0.06172839506172839,28.333333333333332,0)" xlink:href="#x"/><use transform="matrix(0.06172839506172839,0,0,0.06172839506172839,40.67901234567901,0)" xlink:href="#O"/><use transform="matrix(0.06172839506172839,0,0,0.06172839506172839,51.79012345679013,0)" xlink:href="#w"/><use transform="matrix(0.06172839506172839,0,0,0.06172839506172839,64.13580246913581,0)" xlink:href="#N"/><use transform="matrix(0.06172839506172839,0,0,0.06172839506172839,71.4814814814815,0)" xlink:href="#y"/><use transform="matrix(0.06172839506172839,0,0,0.06172839506172839,77.65432098765433,0)" xlink:href="#w"/><use transform="matrix(0.06172839506172839,0,0,0.06172839506172839,90.00000000000001,0)" xlink:href="#N"/></g></defs></g></svg>